<svg xmlns="http://www.w3.org/2000/svg" viewBox="0 0 900 560" font-family="-apple-system,Helvetica,Arial,sans-serif">
  <defs>
    <linearGradient id="barGrad1" x1="0" y1="0" x2="0" y2="1"><stop offset="0%" stop-color="#fb923c"/><stop offset="100%" stop-color="#ea580c"/></linearGradient>
    <linearGradient id="barGrad2" x1="0" y1="0" x2="0" y2="1"><stop offset="0%" stop-color="#4ade80"/><stop offset="100%" stop-color="#16a34a"/></linearGradient>
    <linearGradient id="barGrad3" x1="0" y1="0" x2="0" y2="1"><stop offset="0%" stop-color="#22d3ee"/><stop offset="100%" stop-color="#0891b2"/></linearGradient>
    <linearGradient id="barGrad4" x1="0" y1="0" x2="0" y2="1"><stop offset="0%" stop-color="#a78bfa"/><stop offset="100%" stop-color="#7c3aed"/></linearGradient>
  </defs>

  <rect width="900" height="560" rx="12" fill="#1a1a2e"/>

  <!-- Title -->
  <text x="450" y="32" text-anchor="middle" font-size="17" font-weight="bold" fill="#e0e0e0">GTE-Go Optimization: 67.4ms → 7.2ms (OpenBLAS) / 13.0ms (pure Go+SIMD)</text>

  <!-- Summary cards -->
  <rect x="20" y="48" width="160" height="50" rx="8" fill="#16213e"/>
  <text x="100" y="66" text-anchor="middle" font-size="9" fill="#888" letter-spacing="0.5">BASELINE</text>
  <text x="100" y="86" text-anchor="middle" font-size="19" font-weight="bold" fill="#fb923c">67.4 ms</text>

  <rect x="195" y="48" width="160" height="50" rx="8" fill="#16213e"/>
  <text x="275" y="66" text-anchor="middle" font-size="9" fill="#888" letter-spacing="0.5">PURE GO+SIMD (DEFAULT)</text>
  <text x="275" y="86" text-anchor="middle" font-size="19" font-weight="bold" fill="#a78bfa">13.0 ms</text>

  <rect x="370" y="48" width="160" height="50" rx="8" fill="#16213e"/>
  <text x="450" y="66" text-anchor="middle" font-size="9" fill="#888" letter-spacing="0.5">OPENBLAS (CGO)</text>
  <text x="450" y="86" text-anchor="middle" font-size="19" font-weight="bold" fill="#22d3ee">7.2 ms</text>

  <rect x="545" y="48" width="160" height="50" rx="8" fill="#16213e"/>
  <text x="625" y="66" text-anchor="middle" font-size="9" fill="#888" letter-spacing="0.5">SPEEDUP</text>
  <text x="625" y="86" text-anchor="middle" font-size="19" font-weight="bold" fill="#60a5fa">5–9×</text>

  <rect x="720" y="48" width="160" height="50" rx="8" fill="#16213e"/>
  <text x="800" y="66" text-anchor="middle" font-size="9" fill="#888" letter-spacing="0.5">ALLOCS/OP</text>
  <text x="800" y="86" text-anchor="middle" font-size="19" font-weight="bold" fill="#c084fc">12</text>

  <!-- Y axis -->
  <line x1="80" y1="120" x2="80" y2="460" stroke="#444" stroke-width="1"/>
  <text x="40" y="130" font-size="10" fill="#fb923c" text-anchor="middle">70</text>
  <text x="40" y="195" font-size="10" fill="#fb923c" text-anchor="middle">30</text>
  <text x="40" y="270" font-size="10" fill="#fb923c" text-anchor="middle">14</text>
  <text x="40" y="335" font-size="10" fill="#fb923c" text-anchor="middle">7</text>
  <text x="40" y="395" font-size="10" fill="#fb923c" text-anchor="middle">5</text>
  <text x="40" y="468" font-size="10" fill="#fb923c" text-anchor="middle">ms</text>

  <!-- Y axis right -->
  <line x1="860" y1="120" x2="860" y2="460" stroke="#444" stroke-width="1"/>
  <text x="885" y="460" font-size="10" fill="#60a5fa" text-anchor="middle">0×</text>
  <text x="885" y="375" font-size="10" fill="#60a5fa" text-anchor="middle">3×</text>
  <text x="885" y="290" font-size="10" fill="#60a5fa" text-anchor="middle">6×</text>
  <text x="885" y="205" font-size="10" fill="#60a5fa" text-anchor="middle">9×</text>
  <text x="885" y="140" font-size="10" fill="#60a5fa" text-anchor="middle">11×</text>

  <!-- Grid -->
  <line x1="80" y1="128" x2="860" y2="128" stroke="#333" stroke-width="0.5" stroke-dasharray="4,4"/>
  <line x1="80" y1="195" x2="860" y2="195" stroke="#333" stroke-width="0.5" stroke-dasharray="4,4"/>
  <line x1="80" y1="270" x2="860" y2="270" stroke="#333" stroke-width="0.5" stroke-dasharray="4,4"/>
  <line x1="80" y1="335" x2="860" y2="335" stroke="#333" stroke-width="0.5" stroke-dasharray="4,4"/>

  <!-- X axis -->
  <line x1="80" y1="460" x2="860" y2="460" stroke="#444" stroke-width="1"/>

  <!-- Bars: 11 stages. x positions spaced ~70px -->
  <!-- Y mapping: log-ish. 67.4→128, 63.4→135, 7.4→332, 7.3→334, 6.6→345, 6.3→350, 5.5→365, 5.6→363, 5.6→363, 13.9→265, 7.2→334 -->

  <!-- Baseline 67.4 -->
  <rect x="95" y="128" width="50" height="332" rx="4" fill="url(#barGrad1)" opacity="0.9"/>
  <text x="120" y="122" text-anchor="middle" font-size="10" font-weight="bold" fill="#fb923c">67.4</text>

  <!-- P1a 63.4 -->
  <rect x="165" y="135" width="50" height="325" rx="4" fill="url(#barGrad1)" opacity="0.75"/>
  <text x="190" y="129" text-anchor="middle" font-size="10" font-weight="bold" fill="#f59e0b">63.4</text>

  <!-- P1b 7.4 -->
  <rect x="235" y="332" width="50" height="128" rx="4" fill="url(#barGrad2)" opacity="0.9"/>
  <text x="260" y="326" text-anchor="middle" font-size="10" font-weight="bold" fill="#4ade80">7.4</text>

  <!-- P1c 7.3 -->
  <rect x="305" y="334" width="50" height="126" rx="4" fill="url(#barGrad2)" opacity="0.85"/>
  <text x="330" y="328" text-anchor="middle" font-size="10" font-weight="bold" fill="#4ade80">7.3</text>

  <!-- P2a 6.6 -->
  <rect x="375" y="345" width="50" height="115" rx="4" fill="url(#barGrad2)" opacity="0.8"/>
  <text x="400" y="339" text-anchor="middle" font-size="10" font-weight="bold" fill="#34d399">6.6</text>

  <!-- P2b 6.3 -->
  <rect x="445" y="350" width="50" height="110" rx="4" fill="url(#barGrad2)" opacity="0.75"/>
  <text x="470" y="344" text-anchor="middle" font-size="10" font-weight="bold" fill="#34d399">6.3</text>

  <!-- P3a OpenBLAS 5.5 -->
  <rect x="515" y="365" width="50" height="95" rx="4" fill="url(#barGrad3)" opacity="0.95"/>
  <text x="540" y="359" text-anchor="middle" font-size="10" font-weight="bold" fill="#22d3ee">5.5</text>

  <!-- P3b 5.6 -->
  <rect x="585" y="363" width="50" height="97" rx="4" fill="url(#barGrad3)" opacity="0.85"/>
  <text x="610" y="357" text-anchor="middle" font-size="10" font-weight="bold" fill="#22d3ee">5.6</text>

  <!-- P3c mmap 5.6 -->
  <rect x="655" y="363" width="50" height="97" rx="4" fill="url(#barGrad3)" opacity="0.75"/>
  <text x="680" y="357" text-anchor="middle" font-size="10" font-weight="bold" fill="#22d3ee">5.6</text>

  <!-- Final: Pure Go 13.0 -->
  <rect x="735" y="270" width="50" height="190" rx="4" fill="url(#barGrad4)" opacity="0.9"/>
  <text x="760" y="264" text-anchor="middle" font-size="10" font-weight="bold" fill="#a78bfa">13.0</text>

  <!-- Final: OpenBLAS mmap 7.2 -->
  <rect x="805" y="334" width="50" height="126" rx="4" fill="url(#barGrad3)" opacity="1.0"/>
  <text x="830" y="328" text-anchor="middle" font-size="10" font-weight="bold" fill="#22d3ee">7.2</text>

  <!-- Speedup line (based on original single-text baseline of 67.4ms) -->
  <!-- Y: speedup 0→460, 11→120; y = 460 - (val/11)*340 -->
  <polyline fill="none" stroke="#60a5fa" stroke-width="2.5" stroke-linejoin="round"
    points="120,429 190,427 260,189 330,188 400,176 470,171 540,157 610,158 680,158 760,311 830,191"/>
  <circle cx="120" cy="429" r="4" fill="#60a5fa"/>
  <circle cx="190" cy="427" r="4" fill="#60a5fa"/>
  <circle cx="260" cy="189" r="5" fill="#60a5fa"/>
  <circle cx="330" cy="188" r="4" fill="#60a5fa"/>
  <circle cx="400" cy="176" r="4" fill="#60a5fa"/>
  <circle cx="470" cy="171" r="4" fill="#60a5fa"/>
  <circle cx="540" cy="157" r="5" fill="#60a5fa"/>
  <circle cx="610" cy="158" r="4" fill="#60a5fa"/>
  <circle cx="680" cy="158" r="4" fill="#60a5fa"/>
  <circle cx="760" cy="311" r="5" fill="#60a5fa"/>
  <circle cx="830" cy="191" r="5" fill="#60a5fa"/>

  <!-- Speedup labels -->
  <text x="120" y="421" text-anchor="middle" font-size="8" fill="#60a5fa">1.0×</text>
  <text x="260" y="181" text-anchor="middle" font-size="8" font-weight="bold" fill="#60a5fa">9.1×</text>
  <text x="540" y="149" text-anchor="middle" font-size="8" font-weight="bold" fill="#60a5fa">12.3×</text>
  <text x="760" y="303" text-anchor="middle" font-size="8" font-weight="bold" fill="#60a5fa">5.2×</text>
  <text x="830" y="183" text-anchor="middle" font-size="8" font-weight="bold" fill="#60a5fa">9.4×</text>

  <!-- X labels -->
  <text x="120" y="478" text-anchor="middle" font-size="8" fill="#aaa">Baseline</text>
  <text x="190" y="478" text-anchor="middle" font-size="8" fill="#aaa">P1a</text>
  <text x="260" y="478" text-anchor="middle" font-size="8" fill="#aaa">P1b</text>
  <text x="330" y="478" text-anchor="middle" font-size="8" fill="#aaa">P1c</text>
  <text x="400" y="478" text-anchor="middle" font-size="8" fill="#aaa">P2a</text>
  <text x="470" y="478" text-anchor="middle" font-size="8" fill="#aaa">P2b</text>
  <text x="540" y="478" text-anchor="middle" font-size="8" fill="#aaa">P3a</text>
  <text x="610" y="478" text-anchor="middle" font-size="8" fill="#aaa">P3b</text>
  <text x="680" y="478" text-anchor="middle" font-size="8" fill="#aaa">P3c</text>
  <text x="760" y="478" text-anchor="middle" font-size="8" fill="#c084fc">Pure Go</text>
  <text x="830" y="478" text-anchor="middle" font-size="8" fill="#22d3ee">OpenBLAS</text>

  <text x="120" y="490" text-anchor="middle" font-size="7" fill="#666">manual</text>
  <text x="190" y="490" text-anchor="middle" font-size="7" fill="#666">f32 math</text>
  <text x="260" y="490" text-anchor="middle" font-size="7" fill="#666">gonum</text>
  <text x="330" y="490" text-anchor="middle" font-size="7" fill="#666">attn</text>
  <text x="400" y="490" text-anchor="middle" font-size="7" fill="#666">QKV</text>
  <text x="470" y="490" text-anchor="middle" font-size="7" fill="#666">heads</text>
  <text x="540" y="490" text-anchor="middle" font-size="7" fill="#666">CGo</text>
  <text x="610" y="490" text-anchor="middle" font-size="7" fill="#666">tok</text>
  <text x="680" y="490" text-anchor="middle" font-size="7" fill="#666">mmap</text>
  <text x="760" y="490" text-anchor="middle" font-size="7" fill="#666">(default)</text>
  <text x="830" y="490" text-anchor="middle" font-size="7" fill="#666">+mmap</text>

  <!-- Bracket: "Final builds" -->
  <line x1="730" y1="503" x2="855" y2="503" stroke="#555" stroke-width="1"/>
  <line x1="730" y1="500" x2="730" y2="506" stroke="#555" stroke-width="1"/>
  <line x1="855" y1="500" x2="855" y2="506" stroke="#555" stroke-width="1"/>
  <text x="792" y="515" text-anchor="middle" font-size="8" fill="#777">Final builds</text>

  <!-- Legend -->
  <rect x="80" y="528" width="12" height="12" rx="3" fill="url(#barGrad1)"/>
  <text x="97" y="539" font-size="9" fill="#ccc">ms/op</text>
  <line x1="145" y1="534" x2="175" y2="534" stroke="#60a5fa" stroke-width="2.5"/>
  <circle cx="160" cy="534" r="3" fill="#60a5fa"/>
  <text x="181" y="539" font-size="9" fill="#ccc">Speedup</text>
  <rect x="240" y="528" width="12" height="12" rx="3" fill="url(#barGrad4)"/>
  <text x="257" y="539" font-size="9" fill="#ccc">Pure Go + SIMD (default)</text>
  <rect x="360" y="528" width="12" height="12" rx="3" fill="url(#barGrad3)"/>
  <text x="377" y="539" font-size="9" fill="#ccc">OpenBLAS CGo (opt-in)</text>

  <text x="450" y="554" text-anchor="middle" font-size="8" fill="#555">i7-12700 · Go 1.26.2 · Linux/amd64 · GTE-small (384d, 12L) · 15 texts, 20 samples, median</text>
</svg>
